<svg width="149" height="38" viewBox="0 0 149 38" fill="none" xmlns="http://www.w3.org/2000/svg">
<mask id="path-1-outside-1_117_83" maskUnits="userSpaceOnUse" x="0" y="0.488037" width="149" height="38" fill="black">
<rect fill="white" y="0.488037" width="149" height="38"/>
<path d="M10.568 35.512C9.016 35.512 7.584 35.208 6.272 34.6C4.976 33.992 3.936 33.104 3.152 31.936C2.384 30.752 2 29.304 2 27.592C2 24.904 3.064 22.816 5.192 21.328C7.336 19.84 10.664 19.096 15.176 19.096H16.04C16.6232 19.096 17.096 18.6233 17.096 18.04V18.04C17.096 17.24 16.872 16.656 16.424 16.288C15.992 15.92 15.304 15.752 14.36 15.784C13.72 15.8 13.016 15.952 12.248 16.24C11.8639 16.3841 11.5277 16.5982 11.2397 16.8824C10.6806 17.4339 10.0155 17.944 9.23016 17.944H5.06078C3.91763 17.944 2.97363 16.973 3.28337 15.8726C3.57308 14.8434 4.04929 13.9579 4.712 13.216C5.784 12 7.2 11.12 8.96 10.576C10.72 10.016 12.664 9.73604 14.792 9.73604C17.672 9.73604 19.928 10.064 21.56 10.72C23.192 11.376 24.344 12.288 25.016 13.456C25.688 14.608 26.024 15.944 26.024 17.464V33.032C26.024 34.1366 25.1286 35.032 24.024 35.032H19.1243C18.6419 35.032 18.2258 34.6934 18.1279 34.221V34.221C17.9266 33.2502 16.4639 33.0628 15.7675 33.7686C15.4457 34.0948 15.1045 34.364 14.744 34.576C13.656 35.2 12.264 35.512 10.568 35.512ZM13.856 29.608C14.304 29.608 14.72 29.528 15.104 29.368C15.504 29.208 15.848 28.992 16.136 28.72C16.424 28.432 16.648 28.112 16.808 27.76C16.984 27.408 17.08 27.032 17.096 26.632V25C17.096 24.1782 16.4298 23.512 15.608 23.512V23.512C15.112 23.512 14.48 23.608 13.712 23.8C12.944 23.976 12.256 24.288 11.648 24.736C11.056 25.184 10.76 25.816 10.76 26.632C10.76 27.56 11.072 28.288 11.696 28.816C12.336 29.344 13.056 29.608 13.856 29.608Z"/>
<path d="M32.566 35.032C31.4614 35.032 30.566 34.1366 30.566 33.032V12.216C30.566 11.1115 31.4614 10.216 32.566 10.216H38.7382C39.2086 10.216 39.59 10.5974 39.59 11.0678V13.0699C39.59 13.7276 40.8683 13.9866 41.222 13.432V13.432C41.942 12.312 42.854 11.416 43.958 10.744C45.062 10.072 46.382 9.73604 47.918 9.73604C48.03 9.73604 48.118 9.73604 48.182 9.73604V9.73604C48.235 9.73604 48.278 9.77902 48.278 9.83204V18.4214C48.278 18.4935 48.2061 18.544 48.134 18.544V18.544C48.102 18.544 48.046 18.536 47.966 18.52C46.222 18.344 44.814 18.36 43.742 18.568C42.686 18.776 41.878 19.12 41.318 19.6C40.758 20.064 40.382 20.608 40.19 21.232C39.998 21.84 39.902 22.472 39.902 23.128V33.032C39.902 34.1366 39.0066 35.032 37.902 35.032H32.566Z"/>
<path d="M63.6631 35.416C61.0551 35.416 59.0391 35.096 57.6151 34.456C56.2071 33.8 55.2311 32.928 54.6871 31.84C54.1431 30.752 53.8711 29.544 53.8711 28.216V18.552C53.8711 17.4475 52.9597 16.552 51.8551 16.552V16.552C50.7506 16.552 49.8391 15.6566 49.8391 14.552V12.216C49.8391 11.1115 50.7346 10.216 51.8391 10.216H52.734C53.6101 10.216 54.3842 9.64587 54.644 8.80921L56.1702 3.89487C56.4301 3.05821 57.2042 2.48804 58.0802 2.48804H61.1831C62.2877 2.48804 63.1831 3.38347 63.1831 4.48804V8.16804C63.1831 9.27261 64.0786 10.168 65.1831 10.168H66.6071C67.7117 10.168 68.6071 11.0635 68.6071 12.168V14.552C68.6071 15.6566 67.7117 16.552 66.6071 16.552H65.1917C64.0838 16.552 63.187 17.4527 63.1917 18.5606L63.2311 27.784C63.2311 28.152 63.2951 28.432 63.4231 28.624C63.5671 28.816 63.7511 28.952 63.9751 29.032C64.1991 29.096 64.4471 29.128 64.7191 29.128H66.6071C67.7117 29.128 68.6071 30.0235 68.6071 31.128V33.3852C68.6071 34.1567 68.1575 34.8525 67.4114 35.0488C67.2818 35.0829 67.1444 35.1173 66.9991 35.152C66.2631 35.328 65.1511 35.416 63.6631 35.416Z"/>
<path d="M83.9611 35.512C81.3851 35.512 79.1131 34.992 77.1451 33.952C75.1931 32.896 73.6731 31.424 72.5851 29.536C71.4971 27.648 70.9531 25.448 70.9531 22.936C70.9531 20.568 71.4491 18.384 72.4411 16.384C73.4491 14.384 74.8891 12.776 76.7611 11.56C78.6491 10.344 80.9211 9.73604 83.5771 9.73604C86.2811 9.73604 88.5371 10.296 90.3451 11.416C92.1531 12.536 93.5051 14.072 94.4011 16.024C95.3131 17.96 95.7691 20.152 95.7691 22.6V22.76C95.7691 23.8646 94.8737 24.76 93.7691 24.76H82.0891C80.9971 24.76 80.0279 25.667 80.3755 26.7022C80.433 26.8735 80.5002 27.0341 80.5771 27.184C80.8971 27.808 81.3291 28.264 81.8731 28.552C82.4331 28.84 83.0491 28.984 83.7211 28.984C84.5691 28.984 85.3291 28.824 86.0011 28.504C86.3549 28.3395 86.6685 28.0903 86.942 27.7565C87.4602 27.1238 88.1454 26.584 88.9632 26.584H93.5676C94.7818 26.584 95.736 27.6744 95.2811 28.8002C94.9034 29.7352 94.37 30.5885 93.6811 31.36C92.4811 32.688 91.0171 33.712 89.2891 34.432C87.5771 35.152 85.8011 35.512 83.9611 35.512ZM80.5531 17.8C80.0332 18.658 80.8864 19.528 81.8896 19.528H85.3604C86.3505 19.528 87.1985 18.6802 86.7451 17.8V17.8C86.4731 17.256 86.0731 16.824 85.5451 16.504C85.0171 16.184 84.3611 16.024 83.5771 16.024C82.9371 16.024 82.3531 16.184 81.8251 16.504C81.2971 16.824 80.8731 17.256 80.5531 17.8V17.8Z"/>
<path d="M107.718 35.032C106.893 35.032 106.153 34.5256 105.854 33.7568L97.7611 12.9408C97.2514 11.6297 98.2185 10.216 99.6251 10.216H103.58C104.433 10.216 105.192 10.7575 105.47 11.5643L107.44 17.279C108.064 19.0896 110.631 19.0722 111.231 17.2532L113.097 11.5901C113.367 10.7701 114.133 10.216 114.996 10.216H119.096C120.503 10.216 121.47 11.631 120.959 12.9423L112.846 33.7583C112.547 34.5263 111.807 35.032 110.983 35.032H107.718Z"/>
<path d="M131.177 35.512C129.625 35.512 128.193 35.208 126.881 34.6C125.585 33.992 124.545 33.104 123.761 31.936C122.993 30.752 122.609 29.304 122.609 27.592C122.609 24.904 123.673 22.816 125.801 21.328C127.945 19.84 131.273 19.096 135.785 19.096H136.649C137.233 19.096 137.705 18.6233 137.705 18.04V18.04C137.705 17.24 137.481 16.656 137.033 16.288C136.601 15.92 135.913 15.752 134.969 15.784C134.329 15.8 133.625 15.952 132.857 16.24C132.473 16.3841 132.137 16.5982 131.849 16.8824C131.29 17.4339 130.625 17.944 129.84 17.944H125.67C124.527 17.944 123.583 16.973 123.893 15.8726C124.182 14.8434 124.659 13.9579 125.321 13.216C126.393 12 127.809 11.12 129.569 10.576C131.329 10.016 133.273 9.73604 135.401 9.73604C138.281 9.73604 140.537 10.064 142.169 10.72C143.801 11.376 144.953 12.288 145.625 13.456C146.297 14.608 146.633 15.944 146.633 17.464V33.032C146.633 34.1366 145.738 35.032 144.633 35.032H139.734C139.251 35.032 138.835 34.6934 138.737 34.221V34.221C138.536 33.2502 137.073 33.0628 136.377 33.7686C136.055 34.0948 135.714 34.364 135.353 34.576C134.265 35.2 132.873 35.512 131.177 35.512ZM134.465 29.608C134.913 29.608 135.329 29.528 135.713 29.368C136.113 29.208 136.457 28.992 136.745 28.72C137.033 28.432 137.257 28.112 137.417 27.76C137.593 27.408 137.689 27.032 137.705 26.632V25C137.705 24.1782 137.039 23.512 136.217 23.512V23.512C135.721 23.512 135.089 23.608 134.321 23.8C133.553 23.976 132.865 24.288 132.257 24.736C131.665 25.184 131.369 25.816 131.369 26.632C131.369 27.56 131.681 28.288 132.305 28.816C132.945 29.344 133.665 29.608 134.465 29.608Z"/>
</mask>
<path d="M10.568 35.512C9.016 35.512 7.584 35.208 6.272 34.6C4.976 33.992 3.936 33.104 3.152 31.936C2.384 30.752 2 29.304 2 27.592C2 24.904 3.064 22.816 5.192 21.328C7.336 19.84 10.664 19.096 15.176 19.096H16.04C16.6232 19.096 17.096 18.6233 17.096 18.04V18.04C17.096 17.24 16.872 16.656 16.424 16.288C15.992 15.92 15.304 15.752 14.36 15.784C13.72 15.8 13.016 15.952 12.248 16.24C11.8639 16.3841 11.5277 16.5982 11.2397 16.8824C10.6806 17.4339 10.0155 17.944 9.23016 17.944H5.06078C3.91763 17.944 2.97363 16.973 3.28337 15.8726C3.57308 14.8434 4.04929 13.9579 4.712 13.216C5.784 12 7.2 11.12 8.96 10.576C10.72 10.016 12.664 9.73604 14.792 9.73604C17.672 9.73604 19.928 10.064 21.56 10.72C23.192 11.376 24.344 12.288 25.016 13.456C25.688 14.608 26.024 15.944 26.024 17.464V33.032C26.024 34.1366 25.1286 35.032 24.024 35.032H19.1243C18.6419 35.032 18.2258 34.6934 18.1279 34.221V34.221C17.9266 33.2502 16.4639 33.0628 15.7675 33.7686C15.4457 34.0948 15.1045 34.364 14.744 34.576C13.656 35.2 12.264 35.512 10.568 35.512ZM13.856 29.608C14.304 29.608 14.72 29.528 15.104 29.368C15.504 29.208 15.848 28.992 16.136 28.72C16.424 28.432 16.648 28.112 16.808 27.76C16.984 27.408 17.08 27.032 17.096 26.632V25C17.096 24.1782 16.4298 23.512 15.608 23.512V23.512C15.112 23.512 14.48 23.608 13.712 23.8C12.944 23.976 12.256 24.288 11.648 24.736C11.056 25.184 10.76 25.816 10.76 26.632C10.76 27.56 11.072 28.288 11.696 28.816C12.336 29.344 13.056 29.608 13.856 29.608Z" fill="white"/>
<path d="M32.566 35.032C31.4614 35.032 30.566 34.1366 30.566 33.032V12.216C30.566 11.1115 31.4614 10.216 32.566 10.216H38.7382C39.2086 10.216 39.59 10.5974 39.59 11.0678V13.0699C39.59 13.7276 40.8683 13.9866 41.222 13.432V13.432C41.942 12.312 42.854 11.416 43.958 10.744C45.062 10.072 46.382 9.73604 47.918 9.73604C48.03 9.73604 48.118 9.73604 48.182 9.73604V9.73604C48.235 9.73604 48.278 9.77902 48.278 9.83204V18.4214C48.278 18.4935 48.2061 18.544 48.134 18.544V18.544C48.102 18.544 48.046 18.536 47.966 18.52C46.222 18.344 44.814 18.36 43.742 18.568C42.686 18.776 41.878 19.12 41.318 19.6C40.758 20.064 40.382 20.608 40.19 21.232C39.998 21.84 39.902 22.472 39.902 23.128V33.032C39.902 34.1366 39.0066 35.032 37.902 35.032H32.566Z" fill="white"/>
<path d="M63.6631 35.416C61.0551 35.416 59.0391 35.096 57.6151 34.456C56.2071 33.8 55.2311 32.928 54.6871 31.84C54.1431 30.752 53.8711 29.544 53.8711 28.216V18.552C53.8711 17.4475 52.9597 16.552 51.8551 16.552V16.552C50.7506 16.552 49.8391 15.6566 49.8391 14.552V12.216C49.8391 11.1115 50.7346 10.216 51.8391 10.216H52.734C53.6101 10.216 54.3842 9.64587 54.644 8.80921L56.1702 3.89487C56.4301 3.05821 57.2042 2.48804 58.0802 2.48804H61.1831C62.2877 2.48804 63.1831 3.38347 63.1831 4.48804V8.16804C63.1831 9.27261 64.0786 10.168 65.1831 10.168H66.6071C67.7117 10.168 68.6071 11.0635 68.6071 12.168V14.552C68.6071 15.6566 67.7117 16.552 66.6071 16.552H65.1917C64.0838 16.552 63.187 17.4527 63.1917 18.5606L63.2311 27.784C63.2311 28.152 63.2951 28.432 63.4231 28.624C63.5671 28.816 63.7511 28.952 63.9751 29.032C64.1991 29.096 64.4471 29.128 64.7191 29.128H66.6071C67.7117 29.128 68.6071 30.0235 68.6071 31.128V33.3852C68.6071 34.1567 68.1575 34.8525 67.4114 35.0488C67.2818 35.0829 67.1444 35.1173 66.9991 35.152C66.2631 35.328 65.1511 35.416 63.6631 35.416Z" fill="white"/>
<path d="M83.9611 35.512C81.3851 35.512 79.1131 34.992 77.1451 33.952C75.1931 32.896 73.6731 31.424 72.5851 29.536C71.4971 27.648 70.9531 25.448 70.9531 22.936C70.9531 20.568 71.4491 18.384 72.4411 16.384C73.4491 14.384 74.8891 12.776 76.7611 11.56C78.6491 10.344 80.9211 9.73604 83.5771 9.73604C86.2811 9.73604 88.5371 10.296 90.3451 11.416C92.1531 12.536 93.5051 14.072 94.4011 16.024C95.3131 17.96 95.7691 20.152 95.7691 22.6V22.76C95.7691 23.8646 94.8737 24.76 93.7691 24.76H82.0891C80.9971 24.76 80.0279 25.667 80.3755 26.7022C80.433 26.8735 80.5002 27.0341 80.5771 27.184C80.8971 27.808 81.3291 28.264 81.8731 28.552C82.4331 28.84 83.0491 28.984 83.7211 28.984C84.5691 28.984 85.3291 28.824 86.0011 28.504C86.3549 28.3395 86.6685 28.0903 86.942 27.7565C87.4602 27.1238 88.1454 26.584 88.9632 26.584H93.5676C94.7818 26.584 95.736 27.6744 95.2811 28.8002C94.9034 29.7352 94.37 30.5885 93.6811 31.36C92.4811 32.688 91.0171 33.712 89.2891 34.432C87.5771 35.152 85.8011 35.512 83.9611 35.512ZM80.5531 17.8C80.0332 18.658 80.8864 19.528 81.8896 19.528H85.3604C86.3505 19.528 87.1985 18.6802 86.7451 17.8V17.8C86.4731 17.256 86.0731 16.824 85.5451 16.504C85.0171 16.184 84.3611 16.024 83.5771 16.024C82.9371 16.024 82.3531 16.184 81.8251 16.504C81.2971 16.824 80.8731 17.256 80.5531 17.8V17.8Z" fill="white"/>
<path d="M107.718 35.032C106.893 35.032 106.153 34.5256 105.854 33.7568L97.7611 12.9408C97.2514 11.6297 98.2185 10.216 99.6251 10.216H103.58C104.433 10.216 105.192 10.7575 105.47 11.5643L107.44 17.279C108.064 19.0896 110.631 19.0722 111.231 17.2532L113.097 11.5901C113.367 10.7701 114.133 10.216 114.996 10.216H119.096C120.503 10.216 121.47 11.631 120.959 12.9423L112.846 33.7583C112.547 34.5263 111.807 35.032 110.983 35.032H107.718Z" fill="white"/>
<path d="M131.177 35.512C129.625 35.512 128.193 35.208 126.881 34.6C125.585 33.992 124.545 33.104 123.761 31.936C122.993 30.752 122.609 29.304 122.609 27.592C122.609 24.904 123.673 22.816 125.801 21.328C127.945 19.84 131.273 19.096 135.785 19.096H136.649C137.233 19.096 137.705 18.6233 137.705 18.04V18.04C137.705 17.24 137.481 16.656 137.033 16.288C136.601 15.92 135.913 15.752 134.969 15.784C134.329 15.8 133.625 15.952 132.857 16.24C132.473 16.3841 132.137 16.5982 131.849 16.8824C131.29 17.4339 130.625 17.944 129.84 17.944H125.67C124.527 17.944 123.583 16.973 123.893 15.8726C124.182 14.8434 124.659 13.9579 125.321 13.216C126.393 12 127.809 11.12 129.569 10.576C131.329 10.016 133.273 9.73604 135.401 9.73604C138.281 9.73604 140.537 10.064 142.169 10.72C143.801 11.376 144.953 12.288 145.625 13.456C146.297 14.608 146.633 15.944 146.633 17.464V33.032C146.633 34.1366 145.738 35.032 144.633 35.032H139.734C139.251 35.032 138.835 34.6934 138.737 34.221V34.221C138.536 33.2502 137.073 33.0628 136.377 33.7686C136.055 34.0948 135.714 34.364 135.353 34.576C134.265 35.2 132.873 35.512 131.177 35.512ZM134.465 29.608C134.913 29.608 135.329 29.528 135.713 29.368C136.113 29.208 136.457 28.992 136.745 28.72C137.033 28.432 137.257 28.112 137.417 27.76C137.593 27.408 137.689 27.032 137.705 26.632V25C137.705 24.1782 137.039 23.512 136.217 23.512V23.512C135.721 23.512 135.089 23.608 134.321 23.8C133.553 23.976 132.865 24.288 132.257 24.736C131.665 25.184 131.369 25.816 131.369 26.632C131.369 27.56 131.681 28.288 132.305 28.816C132.945 29.344 133.665 29.608 134.465 29.608Z" fill="white"/>
<path d="M10.568 35.512C9.016 35.512 7.584 35.208 6.272 34.6C4.976 33.992 3.936 33.104 3.152 31.936C2.384 30.752 2 29.304 2 27.592C2 24.904 3.064 22.816 5.192 21.328C7.336 19.84 10.664 19.096 15.176 19.096H16.04C16.6232 19.096 17.096 18.6233 17.096 18.04V18.04C17.096 17.24 16.872 16.656 16.424 16.288C15.992 15.92 15.304 15.752 14.36 15.784C13.72 15.8 13.016 15.952 12.248 16.24C11.8639 16.3841 11.5277 16.5982 11.2397 16.8824C10.6806 17.4339 10.0155 17.944 9.23016 17.944H5.06078C3.91763 17.944 2.97363 16.973 3.28337 15.8726C3.57308 14.8434 4.04929 13.9579 4.712 13.216C5.784 12 7.2 11.12 8.96 10.576C10.72 10.016 12.664 9.73604 14.792 9.73604C17.672 9.73604 19.928 10.064 21.56 10.72C23.192 11.376 24.344 12.288 25.016 13.456C25.688 14.608 26.024 15.944 26.024 17.464V33.032C26.024 34.1366 25.1286 35.032 24.024 35.032H19.1243C18.6419 35.032 18.2258 34.6934 18.1279 34.221V34.221C17.9266 33.2502 16.4639 33.0628 15.7675 33.7686C15.4457 34.0948 15.1045 34.364 14.744 34.576C13.656 35.2 12.264 35.512 10.568 35.512ZM13.856 29.608C14.304 29.608 14.72 29.528 15.104 29.368C15.504 29.208 15.848 28.992 16.136 28.72C16.424 28.432 16.648 28.112 16.808 27.76C16.984 27.408 17.08 27.032 17.096 26.632V25C17.096 24.1782 16.4298 23.512 15.608 23.512V23.512C15.112 23.512 14.48 23.608 13.712 23.8C12.944 23.976 12.256 24.288 11.648 24.736C11.056 25.184 10.76 25.816 10.76 26.632C10.76 27.56 11.072 28.288 11.696 28.816C12.336 29.344 13.056 29.608 13.856 29.608Z" stroke="#171717" stroke-width="4" mask="url(#path-1-outside-1_117_83)"/>
<path d="M32.566 35.032C31.4614 35.032 30.566 34.1366 30.566 33.032V12.216C30.566 11.1115 31.4614 10.216 32.566 10.216H38.7382C39.2086 10.216 39.59 10.5974 39.59 11.0678V13.0699C39.59 13.7276 40.8683 13.9866 41.222 13.432V13.432C41.942 12.312 42.854 11.416 43.958 10.744C45.062 10.072 46.382 9.73604 47.918 9.73604C48.03 9.73604 48.118 9.73604 48.182 9.73604V9.73604C48.235 9.73604 48.278 9.77902 48.278 9.83204V18.4214C48.278 18.4935 48.2061 18.544 48.134 18.544V18.544C48.102 18.544 48.046 18.536 47.966 18.52C46.222 18.344 44.814 18.36 43.742 18.568C42.686 18.776 41.878 19.12 41.318 19.6C40.758 20.064 40.382 20.608 40.19 21.232C39.998 21.84 39.902 22.472 39.902 23.128V33.032C39.902 34.1366 39.0066 35.032 37.902 35.032H32.566Z" stroke="#171717" stroke-width="4" mask="url(#path-1-outside-1_117_83)"/>
<path d="M63.6631 35.416C61.0551 35.416 59.0391 35.096 57.6151 34.456C56.2071 33.8 55.2311 32.928 54.6871 31.84C54.1431 30.752 53.8711 29.544 53.8711 28.216V18.552C53.8711 17.4475 52.9597 16.552 51.8551 16.552V16.552C50.7506 16.552 49.8391 15.6566 49.8391 14.552V12.216C49.8391 11.1115 50.7346 10.216 51.8391 10.216H52.734C53.6101 10.216 54.3842 9.64587 54.644 8.80921L56.1702 3.89487C56.4301 3.05821 57.2042 2.48804 58.0802 2.48804H61.1831C62.2877 2.48804 63.1831 3.38347 63.1831 4.48804V8.16804C63.1831 9.27261 64.0786 10.168 65.1831 10.168H66.6071C67.7117 10.168 68.6071 11.0635 68.6071 12.168V14.552C68.6071 15.6566 67.7117 16.552 66.6071 16.552H65.1917C64.0838 16.552 63.187 17.4527 63.1917 18.5606L63.2311 27.784C63.2311 28.152 63.2951 28.432 63.4231 28.624C63.5671 28.816 63.7511 28.952 63.9751 29.032C64.1991 29.096 64.4471 29.128 64.7191 29.128H66.6071C67.7117 29.128 68.6071 30.0235 68.6071 31.128V33.3852C68.6071 34.1567 68.1575 34.8525 67.4114 35.0488C67.2818 35.0829 67.1444 35.1173 66.9991 35.152C66.2631 35.328 65.1511 35.416 63.6631 35.416Z" stroke="#171717" stroke-width="4" mask="url(#path-1-outside-1_117_83)"/>
<path d="M83.9611 35.512C81.3851 35.512 79.1131 34.992 77.1451 33.952C75.1931 32.896 73.6731 31.424 72.5851 29.536C71.4971 27.648 70.9531 25.448 70.9531 22.936C70.9531 20.568 71.4491 18.384 72.4411 16.384C73.4491 14.384 74.8891 12.776 76.7611 11.56C78.6491 10.344 80.9211 9.73604 83.5771 9.73604C86.2811 9.73604 88.5371 10.296 90.3451 11.416C92.1531 12.536 93.5051 14.072 94.4011 16.024C95.3131 17.96 95.7691 20.152 95.7691 22.6V22.76C95.7691 23.8646 94.8737 24.76 93.7691 24.76H82.0891C80.9971 24.76 80.0279 25.667 80.3755 26.7022C80.433 26.8735 80.5002 27.0341 80.5771 27.184C80.8971 27.808 81.3291 28.264 81.8731 28.552C82.4331 28.84 83.0491 28.984 83.7211 28.984C84.5691 28.984 85.3291 28.824 86.0011 28.504C86.3549 28.3395 86.6685 28.0903 86.942 27.7565C87.4602 27.1238 88.1454 26.584 88.9632 26.584H93.5676C94.7818 26.584 95.736 27.6744 95.2811 28.8002C94.9034 29.7352 94.37 30.5885 93.6811 31.36C92.4811 32.688 91.0171 33.712 89.2891 34.432C87.5771 35.152 85.8011 35.512 83.9611 35.512ZM80.5531 17.8C80.0332 18.658 80.8864 19.528 81.8896 19.528H85.3604C86.3505 19.528 87.1985 18.6802 86.7451 17.8V17.8C86.4731 17.256 86.0731 16.824 85.5451 16.504C85.0171 16.184 84.3611 16.024 83.5771 16.024C82.9371 16.024 82.3531 16.184 81.8251 16.504C81.2971 16.824 80.8731 17.256 80.5531 17.8V17.8Z" stroke="#171717" stroke-width="4" mask="url(#path-1-outside-1_117_83)"/>
<path d="M107.718 35.032C106.893 35.032 106.153 34.5256 105.854 33.7568L97.7611 12.9408C97.2514 11.6297 98.2185 10.216 99.6251 10.216H103.58C104.433 10.216 105.192 10.7575 105.47 11.5643L107.44 17.279C108.064 19.0896 110.631 19.0722 111.231 17.2532L113.097 11.5901C113.367 10.7701 114.133 10.216 114.996 10.216H119.096C120.503 10.216 121.47 11.631 120.959 12.9423L112.846 33.7583C112.547 34.5263 111.807 35.032 110.983 35.032H107.718Z" stroke="#171717" stroke-width="4" mask="url(#path-1-outside-1_117_83)"/>
<path d="M131.177 35.512C129.625 35.512 128.193 35.208 126.881 34.6C125.585 33.992 124.545 33.104 123.761 31.936C122.993 30.752 122.609 29.304 122.609 27.592C122.609 24.904 123.673 22.816 125.801 21.328C127.945 19.84 131.273 19.096 135.785 19.096H136.649C137.233 19.096 137.705 18.6233 137.705 18.04V18.04C137.705 17.24 137.481 16.656 137.033 16.288C136.601 15.92 135.913 15.752 134.969 15.784C134.329 15.8 133.625 15.952 132.857 16.24C132.473 16.3841 132.137 16.5982 131.849 16.8824C131.29 17.4339 130.625 17.944 129.84 17.944H125.67C124.527 17.944 123.583 16.973 123.893 15.8726C124.182 14.8434 124.659 13.9579 125.321 13.216C126.393 12 127.809 11.12 129.569 10.576C131.329 10.016 133.273 9.73604 135.401 9.73604C138.281 9.73604 140.537 10.064 142.169 10.72C143.801 11.376 144.953 12.288 145.625 13.456C146.297 14.608 146.633 15.944 146.633 17.464V33.032C146.633 34.1366 145.738 35.032 144.633 35.032H139.734C139.251 35.032 138.835 34.6934 138.737 34.221V34.221C138.536 33.2502 137.073 33.0628 136.377 33.7686C136.055 34.0948 135.714 34.364 135.353 34.576C134.265 35.2 132.873 35.512 131.177 35.512ZM134.465 29.608C134.913 29.608 135.329 29.528 135.713 29.368C136.113 29.208 136.457 28.992 136.745 28.72C137.033 28.432 137.257 28.112 137.417 27.76C137.593 27.408 137.689 27.032 137.705 26.632V25C137.705 24.1782 137.039 23.512 136.217 23.512V23.512C135.721 23.512 135.089 23.608 134.321 23.8C133.553 23.976 132.865 24.288 132.257 24.736C131.665 25.184 131.369 25.816 131.369 26.632C131.369 27.56 131.681 28.288 132.305 28.816C132.945 29.344 133.665 29.608 134.465 29.608Z" stroke="#171717" stroke-width="4" mask="url(#path-1-outside-1_117_83)"/>
</svg>
