<svg width="747" height="136" viewBox="0 0 747 136" fill="none" xmlns="http://www.w3.org/2000/svg">
<mask id="path-1-outside-1_139_657" maskUnits="userSpaceOnUse" x="0" y="0" width="747" height="136" fill="black">
<rect fill="white" width="747" height="136"/>
<path d="M63.4247 100.468C60.724 100.468 58.5346 98.2781 58.5346 95.5774V87.3434C58.5346 86.9862 58.8614 86.7182 59.2117 86.7883C59.5145 86.8489 59.7138 87.1415 59.6489 87.4433C58.7392 91.6721 56.3303 95.0762 52.4219 97.6557C48.4283 100.345 43.6197 101.69 37.996 101.69C32.2909 101.69 27.3192 100.386 23.0811 97.7779C18.9245 95.0884 15.7052 91.3393 13.4231 86.5306C11.141 81.722 10 76.0576 10 69.5374C10 62.9357 11.1818 57.1898 13.5453 52.2997C15.9089 47.4095 19.2098 43.6197 23.4479 40.9301C27.7675 38.2405 32.7799 36.8957 38.485 36.8957C44.4347 36.8957 49.2434 38.2813 52.911 41.0524C56.4888 43.6969 58.6564 47.2692 59.4136 51.7695C59.4732 52.1239 59.2138 52.4491 58.8559 52.4816C58.4864 52.5152 58.1678 52.2243 58.1678 51.8533V17.3352C58.1678 14.6345 60.3572 12.4451 63.058 12.4451H71.6157C74.3165 12.4451 76.5059 14.6345 76.5059 17.3352V95.5774C76.5059 98.2781 74.3165 100.468 71.6157 100.468H63.4247ZM43.8642 87.0196C48.1838 87.0196 51.6884 85.5119 54.378 82.4963C57.0676 79.3992 58.4124 74.9981 58.4124 69.2929C58.4124 63.5877 57.0268 59.2274 54.2557 56.2118C51.5662 53.1147 48.0208 51.5662 43.6197 51.5662C39.3816 51.5662 35.877 53.1147 33.1059 56.2118C30.4163 59.3089 29.0715 63.71 29.0715 69.4152C29.0715 75.1203 30.4163 79.4807 33.1059 82.4963C35.877 85.5119 39.4631 87.0196 43.8642 87.0196Z"/>
<path d="M141.481 100.468C139.276 100.468 137.316 98.9946 136.948 96.8203C136.832 96.1358 136.732 95.4362 136.646 94.7216C136.488 92.746 136.406 90.464 136.402 87.8754C136.401 87.7404 136.292 87.6309 136.157 87.6309C136.022 87.6309 135.912 87.5214 135.912 87.3864V58.1678C135.912 55.6413 135.057 53.6852 133.345 52.2997C131.715 50.8326 129.27 50.0991 126.01 50.0991C122.913 50.0991 120.427 50.6289 118.552 51.6884C117.87 52.0918 117.276 52.5661 116.77 53.1112C115.279 54.7193 113.491 56.334 111.298 56.334H103.175C100.195 56.334 97.8598 53.6394 99.0835 50.9224C100.555 47.6559 102.928 44.8141 106.205 42.3971C111.176 38.7295 117.982 36.8957 126.621 36.8957C135.586 36.8957 142.433 38.8926 147.16 42.8862C151.887 46.8798 154.25 52.6257 154.25 60.1239V87.6309C154.25 89.6685 154.373 91.7468 154.617 93.8658C154.635 93.9786 154.654 94.0918 154.673 94.2056C155.206 97.3916 152.893 100.468 149.662 100.468H141.481ZM115.985 101.69C109.791 101.69 104.86 100.142 101.192 97.0444C97.5248 93.8658 95.691 89.6685 95.691 84.4523C95.691 78.6657 97.8509 74.02 102.17 70.5154C106.572 66.9293 112.684 64.6065 120.508 63.547L133.152 61.7651C136.095 61.3503 138.724 63.6352 138.724 66.6073V67.4178C138.724 69.8326 136.962 71.8858 134.575 72.2515L123.565 73.9385C120.305 74.4275 117.9 75.3241 116.352 76.6281C114.803 77.9321 114.029 79.7252 114.029 82.0073C114.029 84.0448 114.763 85.5934 116.23 86.6529C117.697 87.7124 119.653 88.2422 122.098 88.2422C125.928 88.2422 129.188 87.2234 131.878 85.1858C132.602 84.6153 137.25 85.4957 137.409 86.4038L137.584 87.4007C137.61 87.5513 137.595 87.7069 137.539 87.8491C135.745 92.3864 133.043 95.8183 129.433 98.1447C125.765 100.508 121.283 101.69 115.985 101.69Z"/>
<path d="M177.944 100.468C175.243 100.468 173.054 98.2781 173.054 95.5774V43.0084C173.054 40.3077 175.243 38.1183 177.944 38.1183H186.501C189.202 38.1183 191.392 40.3077 191.392 43.0084V95.5774C191.392 98.2781 189.202 100.468 186.501 100.468H177.944ZM177.332 29.8051C174.632 29.8051 172.442 27.6157 172.442 24.9149V14.8901C172.442 12.1894 174.632 10 177.332 10H187.113C189.813 10 192.003 12.1894 192.003 14.8901V24.9149C192.003 27.6157 189.813 29.8051 187.113 29.8051H177.332Z"/>
<path d="M218.23 100.468C215.529 100.468 213.34 98.2781 213.34 95.5774V17.3352C213.34 14.6345 215.529 12.4451 218.23 12.4451H226.788C229.489 12.4451 231.678 14.6345 231.678 17.3352V95.5774C231.678 98.2781 229.489 100.468 226.788 100.468H218.23Z"/>
<path d="M264.381 125.529C260.829 125.529 258.462 121.862 259.925 118.625L274.043 87.3864L276.977 82.5333C277.139 82.2647 277.276 81.9812 277.384 81.6865L292.183 41.325C292.889 39.3988 294.722 38.1183 296.774 38.1183H305.479C308.996 38.1183 311.363 41.7199 309.967 44.9484L276.418 122.579C275.644 124.37 273.88 125.529 271.929 125.529H264.381ZM274.447 97.707C271.967 98.5662 269.251 97.3146 268.294 94.8711L248.663 44.7931C247.406 41.5856 249.771 38.1183 253.216 38.1183H262.392C264.465 38.1183 266.313 39.4255 267.003 41.3803L283.897 89.2274C284.8 91.7847 283.449 94.5883 280.886 95.4762L274.447 97.707Z"/>
<path d="M350.735 101.69C341.606 101.69 334.353 99.8563 328.973 96.1887C325.126 93.5656 322.53 90.2339 321.184 86.1935C320.284 83.4927 322.6 81.0292 325.447 81.0292H332.33C334.756 81.0292 336.661 82.9508 338.059 84.9336C338.733 85.8905 339.617 86.7082 340.71 87.3864C343.155 88.7719 346.496 89.4647 350.735 89.4647C354.565 89.4647 357.336 88.935 359.048 87.8754C360.841 86.7344 361.737 85.1451 361.737 83.1075C361.737 81.559 361.208 80.3772 360.148 79.5622C359.17 78.6657 357.336 77.9321 354.647 77.3616L344.622 75.2833C337.205 73.7348 331.745 71.412 328.24 68.3149C324.735 65.1363 322.983 61.0612 322.983 56.0895C322.983 50.0584 325.306 45.372 329.952 42.0304C334.597 38.6073 341.077 36.8957 349.39 36.8957C357.622 36.8957 364.182 38.5665 369.073 41.9081C372.416 44.1369 374.73 46.9752 376.017 50.423C377.017 53.1035 374.688 55.6005 371.827 55.6005H364.955C362.541 55.6005 360.641 53.5917 358.885 51.9367C358.443 51.5204 357.927 51.1524 357.336 50.8326C355.38 49.6916 352.609 49.1211 349.023 49.1211C345.763 49.1211 343.318 49.6101 341.688 50.5881C340.139 51.4847 339.365 52.7887 339.365 54.5002C339.365 55.9673 340.017 57.1491 341.321 58.0456C342.625 58.8606 344.785 59.5941 347.801 60.2461L359.048 62.569C365.323 63.873 370.051 66.3181 373.229 69.9042C376.489 73.4088 378.119 77.5654 378.119 82.374C378.119 88.4867 375.715 93.2546 370.906 96.6777C366.179 100.019 359.455 101.69 350.735 101.69Z"/>
<path d="M399.38 100.468C396.679 100.468 394.49 98.2781 394.49 95.5774V17.3352C394.49 14.6345 396.679 12.4451 399.38 12.4451H407.938C410.638 12.4451 412.828 14.6345 412.828 17.3352V95.5774C412.828 98.2781 410.638 100.468 407.938 100.468H399.38ZM436.817 100.468C435.332 100.468 433.927 99.7922 432.999 98.6322L411.061 71.21C409.601 69.3856 409.636 66.7837 411.144 64.9991L432.39 39.8524C433.319 38.7527 434.686 38.1183 436.126 38.1183H443.97C448.213 38.1183 450.443 43.1504 447.593 46.2932L427.638 68.3007C426.937 69.0747 425.657 68.4689 425.811 67.4355C425.945 66.5384 427.072 66.2157 427.66 66.9064L449.367 92.4077C452.07 95.5831 449.813 100.468 445.643 100.468H436.817Z"/>
<path d="M496.232 101.69C489.305 101.69 483.274 100.345 478.139 97.6557C473.004 94.8846 469.011 91.054 466.158 86.1639C463.387 81.2737 462.001 75.6501 462.001 69.2929C462.001 62.8542 463.387 57.2306 466.158 52.4219C469.011 47.5318 472.964 43.7419 478.017 41.0524C483.07 38.2813 488.938 36.8957 495.621 36.8957C502.06 36.8957 507.643 38.1998 512.37 40.8079C517.097 43.4159 520.765 47.0428 523.373 51.6884C525.981 56.334 527.285 61.7947 527.285 68.0704C527.285 69.3744 527.244 70.5969 527.162 71.738C527.026 73.5096 525.493 74.7943 523.716 74.7943H477.65C474.949 74.7943 472.76 72.6049 472.76 69.9042V67.5814C472.76 64.8806 474.949 62.6912 477.65 62.6912H509.581C510.323 62.6912 510.622 63.6477 510.012 64.0699C509.51 64.4172 508.82 64.0575 508.789 63.4479C508.574 59.1262 507.363 55.8992 505.157 53.7667C502.793 51.3216 499.533 50.0991 495.377 50.0991C490.568 50.0991 486.819 51.7292 484.129 54.9893C481.521 58.2493 480.217 63.1395 480.217 69.6597C480.217 76.0168 481.521 80.744 484.129 83.8411C486.819 86.9381 490.812 88.4867 496.11 88.4867C499.044 88.4867 501.571 87.9977 503.69 87.0196C504.878 86.4711 505.9 85.7302 506.756 84.797C508.025 83.4121 509.652 82.2518 511.531 82.2518H518.882C522.228 82.2518 524.583 85.5672 522.835 88.4208C520.867 91.6344 518.316 94.346 515.182 96.5554C510.292 99.9785 503.975 101.69 496.232 101.69Z"/>
<path d="M572.341 101.812C564.354 101.812 558.404 99.897 554.492 96.0664C550.661 92.1543 548.746 86.2454 548.746 78.3397V27.5756C548.746 25.5345 550.014 23.7081 551.926 22.9943L560.484 19.7994C563.679 18.6063 567.084 20.9694 567.084 24.3807V78.9509C567.084 81.722 567.858 83.8003 569.407 85.1858C570.955 86.5714 573.36 87.2642 576.62 87.2642C577.842 87.2642 578.983 87.1419 580.043 86.8974C581.637 86.5295 583.221 87.698 583.221 89.3341V97.0577C583.221 98.8567 582.227 100.535 580.48 100.963C579.934 101.096 579.34 101.216 578.698 101.323C576.823 101.649 574.704 101.812 572.341 101.812ZM542.022 52.0552C539.321 52.0552 537.132 49.8658 537.132 47.165V43.0084C537.132 40.3077 539.321 38.1183 542.022 38.1183H578.331C581.032 38.1183 583.221 40.3077 583.221 43.0084V47.165C583.221 49.8658 581.032 52.0552 578.331 52.0552H542.022Z"/>
<path d="M627.519 101.69C620.999 101.69 615.253 100.305 610.281 97.5334C605.31 94.7624 601.398 90.9318 598.545 86.0416C595.774 81.1515 594.389 75.5686 594.389 69.2929C594.389 63.0172 595.774 57.4343 598.545 52.5442C601.398 47.654 605.31 43.8234 610.281 41.0524C615.253 38.2813 620.999 36.8957 627.519 36.8957C632.98 36.8957 637.87 37.9145 642.19 39.9521C646.591 41.9081 650.177 44.6385 652.948 48.1431C654.613 50.1889 655.931 52.4431 656.902 54.9056C658.014 57.7271 655.677 60.4907 652.644 60.4907H644.37C642.206 60.4907 640.396 59.0019 639.256 57.162C638.372 55.7329 637.23 54.5604 635.832 53.6445C633.55 52.0959 630.861 51.3217 627.764 51.3217C624.83 51.3217 622.262 52.0552 620.062 53.5222C617.943 54.9893 616.313 57.0676 615.172 59.7571C614.031 62.4467 613.46 65.6253 613.46 69.2929C613.46 72.9605 614.031 76.1391 615.172 78.8287C616.313 81.5182 617.943 83.5965 620.062 85.0636C622.262 86.5306 624.83 87.2642 627.764 87.2642C630.861 87.2642 633.55 86.4899 635.832 84.9413C637.23 84.0254 638.372 82.8529 639.256 81.4238C640.396 79.5839 642.206 78.0951 644.37 78.0951H652.644C655.677 78.0951 658.014 80.8587 656.902 83.6802C655.931 86.1427 654.613 88.3969 652.948 90.4427C650.177 93.9473 646.591 96.7184 642.19 98.756C637.87 100.712 632.98 101.69 627.519 101.69Z"/>
<path d="M680.152 100.468C677.451 100.468 675.262 98.2781 675.262 95.5774V17.3352C675.262 14.6345 677.451 12.4451 680.152 12.4451H688.71C691.411 12.4451 693.6 14.6345 693.6 17.3352V95.5774C693.6 98.2781 691.411 100.468 688.71 100.468H680.152ZM723.552 100.468C720.851 100.468 718.662 98.2781 718.662 95.5774V61.8354C718.662 58.4123 717.765 55.845 715.972 54.1335C714.261 52.4219 711.734 51.5662 708.393 51.5662C705.54 51.5662 702.973 52.2182 700.691 53.5222C698.49 54.8262 696.738 56.6193 695.434 58.9014C694.211 61.1834 693.6 63.873 693.6 66.9701L692.149 53.2401C692.058 52.3838 692.187 51.5145 692.573 50.7447C694.581 46.735 697.369 43.5042 700.935 41.0524C704.929 38.2813 709.819 36.8957 715.606 36.8957C722.533 36.8957 727.831 38.8518 731.499 42.7639C735.166 46.5945 737 51.7699 737 58.2901V95.5774C737 98.2781 734.811 100.468 732.11 100.468H723.552Z"/>
</mask>
<path d="M63.4247 100.468C60.724 100.468 58.5346 98.2781 58.5346 95.5774V87.3434C58.5346 86.9862 58.8614 86.7182 59.2117 86.7883C59.5145 86.8489 59.7138 87.1415 59.6489 87.4433C58.7392 91.6721 56.3303 95.0762 52.4219 97.6557C48.4283 100.345 43.6197 101.69 37.996 101.69C32.2909 101.69 27.3192 100.386 23.0811 97.7779C18.9245 95.0884 15.7052 91.3393 13.4231 86.5306C11.141 81.722 10 76.0576 10 69.5374C10 62.9357 11.1818 57.1898 13.5453 52.2997C15.9089 47.4095 19.2098 43.6197 23.4479 40.9301C27.7675 38.2405 32.7799 36.8957 38.485 36.8957C44.4347 36.8957 49.2434 38.2813 52.911 41.0524C56.4888 43.6969 58.6564 47.2692 59.4136 51.7695C59.4732 52.1239 59.2138 52.4491 58.8559 52.4816C58.4864 52.5152 58.1678 52.2243 58.1678 51.8533V17.3352C58.1678 14.6345 60.3572 12.4451 63.058 12.4451H71.6157C74.3165 12.4451 76.5059 14.6345 76.5059 17.3352V95.5774C76.5059 98.2781 74.3165 100.468 71.6157 100.468H63.4247ZM43.8642 87.0196C48.1838 87.0196 51.6884 85.5119 54.378 82.4963C57.0676 79.3992 58.4124 74.9981 58.4124 69.2929C58.4124 63.5877 57.0268 59.2274 54.2557 56.2118C51.5662 53.1147 48.0208 51.5662 43.6197 51.5662C39.3816 51.5662 35.877 53.1147 33.1059 56.2118C30.4163 59.3089 29.0715 63.71 29.0715 69.4152C29.0715 75.1203 30.4163 79.4807 33.1059 82.4963C35.877 85.5119 39.4631 87.0196 43.8642 87.0196Z" fill="#EEF2FF"/>
<path d="M141.481 100.468C139.276 100.468 137.316 98.9946 136.948 96.8203C136.832 96.1358 136.732 95.4362 136.646 94.7216C136.488 92.746 136.406 90.464 136.402 87.8754C136.401 87.7404 136.292 87.6309 136.157 87.6309C136.022 87.6309 135.912 87.5214 135.912 87.3864V58.1678C135.912 55.6413 135.057 53.6852 133.345 52.2997C131.715 50.8326 129.27 50.0991 126.01 50.0991C122.913 50.0991 120.427 50.6289 118.552 51.6884C117.87 52.0918 117.276 52.5661 116.77 53.1112C115.279 54.7193 113.491 56.334 111.298 56.334H103.175C100.195 56.334 97.8598 53.6394 99.0835 50.9224C100.555 47.6559 102.928 44.8141 106.205 42.3971C111.176 38.7295 117.982 36.8957 126.621 36.8957C135.586 36.8957 142.433 38.8926 147.16 42.8862C151.887 46.8798 154.25 52.6257 154.25 60.1239V87.6309C154.25 89.6685 154.373 91.7468 154.617 93.8658C154.635 93.9786 154.654 94.0918 154.673 94.2056C155.206 97.3916 152.893 100.468 149.662 100.468H141.481ZM115.985 101.69C109.791 101.69 104.86 100.142 101.192 97.0444C97.5248 93.8658 95.691 89.6685 95.691 84.4523C95.691 78.6657 97.8509 74.02 102.17 70.5154C106.572 66.9293 112.684 64.6065 120.508 63.547L133.152 61.7651C136.095 61.3503 138.724 63.6352 138.724 66.6073V67.4178C138.724 69.8326 136.962 71.8858 134.575 72.2515L123.565 73.9385C120.305 74.4275 117.9 75.3241 116.352 76.6281C114.803 77.9321 114.029 79.7252 114.029 82.0073C114.029 84.0448 114.763 85.5934 116.23 86.6529C117.697 87.7124 119.653 88.2422 122.098 88.2422C125.928 88.2422 129.188 87.2234 131.878 85.1858C132.602 84.6153 137.25 85.4957 137.409 86.4038L137.584 87.4007C137.61 87.5513 137.595 87.7069 137.539 87.8491C135.745 92.3864 133.043 95.8183 129.433 98.1447C125.765 100.508 121.283 101.69 115.985 101.69Z" fill="#EEF2FF"/>
<path d="M177.944 100.468C175.243 100.468 173.054 98.2781 173.054 95.5774V43.0084C173.054 40.3077 175.243 38.1183 177.944 38.1183H186.501C189.202 38.1183 191.392 40.3077 191.392 43.0084V95.5774C191.392 98.2781 189.202 100.468 186.501 100.468H177.944ZM177.332 29.8051C174.632 29.8051 172.442 27.6157 172.442 24.9149V14.8901C172.442 12.1894 174.632 10 177.332 10H187.113C189.813 10 192.003 12.1894 192.003 14.8901V24.9149C192.003 27.6157 189.813 29.8051 187.113 29.8051H177.332Z" fill="#EEF2FF"/>
<path d="M218.23 100.468C215.529 100.468 213.34 98.2781 213.34 95.5774V17.3352C213.34 14.6345 215.529 12.4451 218.23 12.4451H226.788C229.489 12.4451 231.678 14.6345 231.678 17.3352V95.5774C231.678 98.2781 229.489 100.468 226.788 100.468H218.23Z" fill="#EEF2FF"/>
<path d="M264.381 125.529C260.829 125.529 258.462 121.862 259.925 118.625L274.043 87.3864L276.977 82.5333C277.139 82.2647 277.276 81.9812 277.384 81.6865L292.183 41.325C292.889 39.3988 294.722 38.1183 296.774 38.1183H305.479C308.996 38.1183 311.363 41.7199 309.967 44.9484L276.418 122.579C275.644 124.37 273.88 125.529 271.929 125.529H264.381ZM274.447 97.707C271.967 98.5662 269.251 97.3146 268.294 94.8711L248.663 44.7931C247.406 41.5856 249.771 38.1183 253.216 38.1183H262.392C264.465 38.1183 266.313 39.4255 267.003 41.3803L283.897 89.2274C284.8 91.7847 283.449 94.5883 280.886 95.4762L274.447 97.707Z" fill="#EEF2FF"/>
<path d="M350.735 101.69C341.606 101.69 334.353 99.8563 328.973 96.1887C325.126 93.5656 322.53 90.2339 321.184 86.1935C320.284 83.4927 322.6 81.0292 325.447 81.0292H332.33C334.756 81.0292 336.661 82.9508 338.059 84.9336C338.733 85.8905 339.617 86.7082 340.71 87.3864C343.155 88.7719 346.496 89.4647 350.735 89.4647C354.565 89.4647 357.336 88.935 359.048 87.8754C360.841 86.7344 361.737 85.1451 361.737 83.1075C361.737 81.559 361.208 80.3772 360.148 79.5622C359.17 78.6657 357.336 77.9321 354.647 77.3616L344.622 75.2833C337.205 73.7348 331.745 71.412 328.24 68.3149C324.735 65.1363 322.983 61.0612 322.983 56.0895C322.983 50.0584 325.306 45.372 329.952 42.0304C334.597 38.6073 341.077 36.8957 349.39 36.8957C357.622 36.8957 364.182 38.5665 369.073 41.9081C372.416 44.1369 374.73 46.9752 376.017 50.423C377.017 53.1035 374.688 55.6005 371.827 55.6005H364.955C362.541 55.6005 360.641 53.5917 358.885 51.9367C358.443 51.5204 357.927 51.1524 357.336 50.8326C355.38 49.6916 352.609 49.1211 349.023 49.1211C345.763 49.1211 343.318 49.6101 341.688 50.5881C340.139 51.4847 339.365 52.7887 339.365 54.5002C339.365 55.9673 340.017 57.1491 341.321 58.0456C342.625 58.8606 344.785 59.5941 347.801 60.2461L359.048 62.569C365.323 63.873 370.051 66.3181 373.229 69.9042C376.489 73.4088 378.119 77.5654 378.119 82.374C378.119 88.4867 375.715 93.2546 370.906 96.6777C366.179 100.019 359.455 101.69 350.735 101.69Z" fill="#EEF2FF"/>
<path d="M399.38 100.468C396.679 100.468 394.49 98.2781 394.49 95.5774V17.3352C394.49 14.6345 396.679 12.4451 399.38 12.4451H407.938C410.638 12.4451 412.828 14.6345 412.828 17.3352V95.5774C412.828 98.2781 410.638 100.468 407.938 100.468H399.38ZM436.817 100.468C435.332 100.468 433.927 99.7922 432.999 98.6322L411.061 71.21C409.601 69.3856 409.636 66.7837 411.144 64.9991L432.39 39.8524C433.319 38.7527 434.686 38.1183 436.126 38.1183H443.97C448.213 38.1183 450.443 43.1504 447.593 46.2932L427.638 68.3007C426.937 69.0747 425.657 68.4689 425.811 67.4355C425.945 66.5384 427.072 66.2157 427.66 66.9064L449.367 92.4077C452.07 95.5831 449.813 100.468 445.643 100.468H436.817Z" fill="#EEF2FF"/>
<path d="M496.232 101.69C489.305 101.69 483.274 100.345 478.139 97.6557C473.004 94.8846 469.011 91.054 466.158 86.1639C463.387 81.2737 462.001 75.6501 462.001 69.2929C462.001 62.8542 463.387 57.2306 466.158 52.4219C469.011 47.5318 472.964 43.7419 478.017 41.0524C483.07 38.2813 488.938 36.8957 495.621 36.8957C502.06 36.8957 507.643 38.1998 512.37 40.8079C517.097 43.4159 520.765 47.0428 523.373 51.6884C525.981 56.334 527.285 61.7947 527.285 68.0704C527.285 69.3744 527.244 70.5969 527.162 71.738C527.026 73.5096 525.493 74.7943 523.716 74.7943H477.65C474.949 74.7943 472.76 72.6049 472.76 69.9042V67.5814C472.76 64.8806 474.949 62.6912 477.65 62.6912H509.581C510.323 62.6912 510.622 63.6477 510.012 64.0699C509.51 64.4172 508.82 64.0575 508.789 63.4479C508.574 59.1262 507.363 55.8992 505.157 53.7667C502.793 51.3216 499.533 50.0991 495.377 50.0991C490.568 50.0991 486.819 51.7292 484.129 54.9893C481.521 58.2493 480.217 63.1395 480.217 69.6597C480.217 76.0168 481.521 80.744 484.129 83.8411C486.819 86.9381 490.812 88.4867 496.11 88.4867C499.044 88.4867 501.571 87.9977 503.69 87.0196C504.878 86.4711 505.9 85.7302 506.756 84.797C508.025 83.4121 509.652 82.2518 511.531 82.2518H518.882C522.228 82.2518 524.583 85.5672 522.835 88.4208C520.867 91.6344 518.316 94.346 515.182 96.5554C510.292 99.9785 503.975 101.69 496.232 101.69Z" fill="#EEF2FF"/>
<path d="M572.341 101.812C564.354 101.812 558.404 99.897 554.492 96.0664C550.661 92.1543 548.746 86.2454 548.746 78.3397V27.5756C548.746 25.5345 550.014 23.7081 551.926 22.9943L560.484 19.7994C563.679 18.6063 567.084 20.9694 567.084 24.3807V78.9509C567.084 81.722 567.858 83.8003 569.407 85.1858C570.955 86.5714 573.36 87.2642 576.62 87.2642C577.842 87.2642 578.983 87.1419 580.043 86.8974C581.637 86.5295 583.221 87.698 583.221 89.3341V97.0577C583.221 98.8567 582.227 100.535 580.48 100.963C579.934 101.096 579.34 101.216 578.698 101.323C576.823 101.649 574.704 101.812 572.341 101.812ZM542.022 52.0552C539.321 52.0552 537.132 49.8658 537.132 47.165V43.0084C537.132 40.3077 539.321 38.1183 542.022 38.1183H578.331C581.032 38.1183 583.221 40.3077 583.221 43.0084V47.165C583.221 49.8658 581.032 52.0552 578.331 52.0552H542.022Z" fill="#EEF2FF"/>
<path d="M627.519 101.69C620.999 101.69 615.253 100.305 610.281 97.5334C605.31 94.7624 601.398 90.9318 598.545 86.0416C595.774 81.1515 594.389 75.5686 594.389 69.2929C594.389 63.0172 595.774 57.4343 598.545 52.5442C601.398 47.654 605.31 43.8234 610.281 41.0524C615.253 38.2813 620.999 36.8957 627.519 36.8957C632.98 36.8957 637.87 37.9145 642.19 39.9521C646.591 41.9081 650.177 44.6385 652.948 48.1431C654.613 50.1889 655.931 52.4431 656.902 54.9056C658.014 57.7271 655.677 60.4907 652.644 60.4907H644.37C642.206 60.4907 640.396 59.0019 639.256 57.162C638.372 55.7329 637.23 54.5604 635.832 53.6445C633.55 52.0959 630.861 51.3217 627.764 51.3217C624.83 51.3217 622.262 52.0552 620.062 53.5222C617.943 54.9893 616.313 57.0676 615.172 59.7571C614.031 62.4467 613.46 65.6253 613.46 69.2929C613.46 72.9605 614.031 76.1391 615.172 78.8287C616.313 81.5182 617.943 83.5965 620.062 85.0636C622.262 86.5306 624.83 87.2642 627.764 87.2642C630.861 87.2642 633.55 86.4899 635.832 84.9413C637.23 84.0254 638.372 82.8529 639.256 81.4238C640.396 79.5839 642.206 78.0951 644.37 78.0951H652.644C655.677 78.0951 658.014 80.8587 656.902 83.6802C655.931 86.1427 654.613 88.3969 652.948 90.4427C650.177 93.9473 646.591 96.7184 642.19 98.756C637.87 100.712 632.98 101.69 627.519 101.69Z" fill="#EEF2FF"/>
<path d="M680.152 100.468C677.451 100.468 675.262 98.2781 675.262 95.5774V17.3352C675.262 14.6345 677.451 12.4451 680.152 12.4451H688.71C691.411 12.4451 693.6 14.6345 693.6 17.3352V95.5774C693.6 98.2781 691.411 100.468 688.71 100.468H680.152ZM723.552 100.468C720.851 100.468 718.662 98.2781 718.662 95.5774V61.8354C718.662 58.4123 717.765 55.845 715.972 54.1335C714.261 52.4219 711.734 51.5662 708.393 51.5662C705.54 51.5662 702.973 52.2182 700.691 53.5222C698.49 54.8262 696.738 56.6193 695.434 58.9014C694.211 61.1834 693.6 63.873 693.6 66.9701L692.149 53.2401C692.058 52.3838 692.187 51.5145 692.573 50.7447C694.581 46.735 697.369 43.5042 700.935 41.0524C704.929 38.2813 709.819 36.8957 715.606 36.8957C722.533 36.8957 727.831 38.8518 731.499 42.7639C735.166 46.5945 737 51.7699 737 58.2901V95.5774C737 98.2781 734.811 100.468 732.11 100.468H723.552Z" fill="#EEF2FF"/>
<path d="M63.4247 100.468C60.724 100.468 58.5346 98.2781 58.5346 95.5774V87.3434C58.5346 86.9862 58.8614 86.7182 59.2117 86.7883C59.5145 86.8489 59.7138 87.1415 59.6489 87.4433C58.7392 91.6721 56.3303 95.0762 52.4219 97.6557C48.4283 100.345 43.6197 101.69 37.996 101.69C32.2909 101.69 27.3192 100.386 23.0811 97.7779C18.9245 95.0884 15.7052 91.3393 13.4231 86.5306C11.141 81.722 10 76.0576 10 69.5374C10 62.9357 11.1818 57.1898 13.5453 52.2997C15.9089 47.4095 19.2098 43.6197 23.4479 40.9301C27.7675 38.2405 32.7799 36.8957 38.485 36.8957C44.4347 36.8957 49.2434 38.2813 52.911 41.0524C56.4888 43.6969 58.6564 47.2692 59.4136 51.7695C59.4732 52.1239 59.2138 52.4491 58.8559 52.4816C58.4864 52.5152 58.1678 52.2243 58.1678 51.8533V17.3352C58.1678 14.6345 60.3572 12.4451 63.058 12.4451H71.6157C74.3165 12.4451 76.5059 14.6345 76.5059 17.3352V95.5774C76.5059 98.2781 74.3165 100.468 71.6157 100.468H63.4247ZM43.8642 87.0196C48.1838 87.0196 51.6884 85.5119 54.378 82.4963C57.0676 79.3992 58.4124 74.9981 58.4124 69.2929C58.4124 63.5877 57.0268 59.2274 54.2557 56.2118C51.5662 53.1147 48.0208 51.5662 43.6197 51.5662C39.3816 51.5662 35.877 53.1147 33.1059 56.2118C30.4163 59.3089 29.0715 63.71 29.0715 69.4152C29.0715 75.1203 30.4163 79.4807 33.1059 82.4963C35.877 85.5119 39.4631 87.0196 43.8642 87.0196Z" stroke="#EEF2FF" stroke-width="20" mask="url(#path-1-outside-1_139_657)"/>
<path d="M63.4247 100.468C60.724 100.468 58.5346 98.2781 58.5346 95.5774V87.3434C58.5346 86.9862 58.8614 86.7182 59.2117 86.7883C59.5145 86.8489 59.7138 87.1415 59.6489 87.4433C58.7392 91.6721 56.3303 95.0762 52.4219 97.6557C48.4283 100.345 43.6197 101.69 37.996 101.69C32.2909 101.69 27.3192 100.386 23.0811 97.7779C18.9245 95.0884 15.7052 91.3393 13.4231 86.5306C11.141 81.722 10 76.0576 10 69.5374C10 62.9357 11.1818 57.1898 13.5453 52.2997C15.9089 47.4095 19.2098 43.6197 23.4479 40.9301C27.7675 38.2405 32.7799 36.8957 38.485 36.8957C44.4347 36.8957 49.2434 38.2813 52.911 41.0524C56.4888 43.6969 58.6564 47.2692 59.4136 51.7695C59.4732 52.1239 59.2138 52.4491 58.8559 52.4816C58.4864 52.5152 58.1678 52.2243 58.1678 51.8533V17.3352C58.1678 14.6345 60.3572 12.4451 63.058 12.4451H71.6157C74.3165 12.4451 76.5059 14.6345 76.5059 17.3352V95.5774C76.5059 98.2781 74.3165 100.468 71.6157 100.468H63.4247ZM43.8642 87.0196C48.1838 87.0196 51.6884 85.5119 54.378 82.4963C57.0676 79.3992 58.4124 74.9981 58.4124 69.2929C58.4124 63.5877 57.0268 59.2274 54.2557 56.2118C51.5662 53.1147 48.0208 51.5662 43.6197 51.5662C39.3816 51.5662 35.877 53.1147 33.1059 56.2118C30.4163 59.3089 29.0715 63.71 29.0715 69.4152C29.0715 75.1203 30.4163 79.4807 33.1059 82.4963C35.877 85.5119 39.4631 87.0196 43.8642 87.0196Z" stroke="#A5B4FC" stroke-width="20" mask="url(#path-1-outside-1_139_657)"/>
<path d="M141.481 100.468C139.276 100.468 137.316 98.9946 136.948 96.8203C136.832 96.1358 136.732 95.4362 136.646 94.7216C136.488 92.746 136.406 90.464 136.402 87.8754C136.401 87.7404 136.292 87.6309 136.157 87.6309C136.022 87.6309 135.912 87.5214 135.912 87.3864V58.1678C135.912 55.6413 135.057 53.6852 133.345 52.2997C131.715 50.8326 129.27 50.0991 126.01 50.0991C122.913 50.0991 120.427 50.6289 118.552 51.6884C117.87 52.0918 117.276 52.5661 116.77 53.1112C115.279 54.7193 113.491 56.334 111.298 56.334H103.175C100.195 56.334 97.8598 53.6394 99.0835 50.9224C100.555 47.6559 102.928 44.8141 106.205 42.3971C111.176 38.7295 117.982 36.8957 126.621 36.8957C135.586 36.8957 142.433 38.8926 147.16 42.8862C151.887 46.8798 154.25 52.6257 154.25 60.1239V87.6309C154.25 89.6685 154.373 91.7468 154.617 93.8658C154.635 93.9786 154.654 94.0918 154.673 94.2056C155.206 97.3916 152.893 100.468 149.662 100.468H141.481ZM115.985 101.69C109.791 101.69 104.86 100.142 101.192 97.0444C97.5248 93.8658 95.691 89.6685 95.691 84.4523C95.691 78.6657 97.8509 74.02 102.17 70.5154C106.572 66.9293 112.684 64.6065 120.508 63.547L133.152 61.7651C136.095 61.3503 138.724 63.6352 138.724 66.6073V67.4178C138.724 69.8326 136.962 71.8858 134.575 72.2515L123.565 73.9385C120.305 74.4275 117.9 75.3241 116.352 76.6281C114.803 77.9321 114.029 79.7252 114.029 82.0073C114.029 84.0448 114.763 85.5934 116.23 86.6529C117.697 87.7124 119.653 88.2422 122.098 88.2422C125.928 88.2422 129.188 87.2234 131.878 85.1858C132.602 84.6153 137.25 85.4957 137.409 86.4038L137.584 87.4007C137.61 87.5513 137.595 87.7069 137.539 87.8491C135.745 92.3864 133.043 95.8183 129.433 98.1447C125.765 100.508 121.283 101.69 115.985 101.69Z" stroke="#EEF2FF" stroke-width="20" mask="url(#path-1-outside-1_139_657)"/>
<path d="M141.481 100.468C139.276 100.468 137.316 98.9946 136.948 96.8203C136.832 96.1358 136.732 95.4362 136.646 94.7216C136.488 92.746 136.406 90.464 136.402 87.8754C136.401 87.7404 136.292 87.6309 136.157 87.6309C136.022 87.6309 135.912 87.5214 135.912 87.3864V58.1678C135.912 55.6413 135.057 53.6852 133.345 52.2997C131.715 50.8326 129.27 50.0991 126.01 50.0991C122.913 50.0991 120.427 50.6289 118.552 51.6884C117.87 52.0918 117.276 52.5661 116.77 53.1112C115.279 54.7193 113.491 56.334 111.298 56.334H103.175C100.195 56.334 97.8598 53.6394 99.0835 50.9224C100.555 47.6559 102.928 44.8141 106.205 42.3971C111.176 38.7295 117.982 36.8957 126.621 36.8957C135.586 36.8957 142.433 38.8926 147.16 42.8862C151.887 46.8798 154.25 52.6257 154.25 60.1239V87.6309C154.25 89.6685 154.373 91.7468 154.617 93.8658C154.635 93.9786 154.654 94.0918 154.673 94.2056C155.206 97.3916 152.893 100.468 149.662 100.468H141.481ZM115.985 101.69C109.791 101.69 104.86 100.142 101.192 97.0444C97.5248 93.8658 95.691 89.6685 95.691 84.4523C95.691 78.6657 97.8509 74.02 102.17 70.5154C106.572 66.9293 112.684 64.6065 120.508 63.547L133.152 61.7651C136.095 61.3503 138.724 63.6352 138.724 66.6073V67.4178C138.724 69.8326 136.962 71.8858 134.575 72.2515L123.565 73.9385C120.305 74.4275 117.9 75.3241 116.352 76.6281C114.803 77.9321 114.029 79.7252 114.029 82.0073C114.029 84.0448 114.763 85.5934 116.23 86.6529C117.697 87.7124 119.653 88.2422 122.098 88.2422C125.928 88.2422 129.188 87.2234 131.878 85.1858C132.602 84.6153 137.25 85.4957 137.409 86.4038L137.584 87.4007C137.61 87.5513 137.595 87.7069 137.539 87.8491C135.745 92.3864 133.043 95.8183 129.433 98.1447C125.765 100.508 121.283 101.69 115.985 101.69Z" stroke="#A5B4FC" stroke-width="20" mask="url(#path-1-outside-1_139_657)"/>
<path d="M177.944 100.468C175.243 100.468 173.054 98.2781 173.054 95.5774V43.0084C173.054 40.3077 175.243 38.1183 177.944 38.1183H186.501C189.202 38.1183 191.392 40.3077 191.392 43.0084V95.5774C191.392 98.2781 189.202 100.468 186.501 100.468H177.944ZM177.332 29.8051C174.632 29.8051 172.442 27.6157 172.442 24.9149V14.8901C172.442 12.1894 174.632 10 177.332 10H187.113C189.813 10 192.003 12.1894 192.003 14.8901V24.9149C192.003 27.6157 189.813 29.8051 187.113 29.8051H177.332Z" stroke="#EEF2FF" stroke-width="20" mask="url(#path-1-outside-1_139_657)"/>
<path d="M177.944 100.468C175.243 100.468 173.054 98.2781 173.054 95.5774V43.0084C173.054 40.3077 175.243 38.1183 177.944 38.1183H186.501C189.202 38.1183 191.392 40.3077 191.392 43.0084V95.5774C191.392 98.2781 189.202 100.468 186.501 100.468H177.944ZM177.332 29.8051C174.632 29.8051 172.442 27.6157 172.442 24.9149V14.8901C172.442 12.1894 174.632 10 177.332 10H187.113C189.813 10 192.003 12.1894 192.003 14.8901V24.9149C192.003 27.6157 189.813 29.8051 187.113 29.8051H177.332Z" stroke="#A5B4FC" stroke-width="20" mask="url(#path-1-outside-1_139_657)"/>
<path d="M218.23 100.468C215.529 100.468 213.34 98.2781 213.34 95.5774V17.3352C213.34 14.6345 215.529 12.4451 218.23 12.4451H226.788C229.489 12.4451 231.678 14.6345 231.678 17.3352V95.5774C231.678 98.2781 229.489 100.468 226.788 100.468H218.23Z" stroke="#EEF2FF" stroke-width="20" mask="url(#path-1-outside-1_139_657)"/>
<path d="M218.23 100.468C215.529 100.468 213.34 98.2781 213.34 95.5774V17.3352C213.34 14.6345 215.529 12.4451 218.23 12.4451H226.788C229.489 12.4451 231.678 14.6345 231.678 17.3352V95.5774C231.678 98.2781 229.489 100.468 226.788 100.468H218.23Z" stroke="#A5B4FC" stroke-width="20" mask="url(#path-1-outside-1_139_657)"/>
<path d="M264.381 125.529C260.829 125.529 258.462 121.862 259.925 118.625L274.043 87.3864L276.977 82.5333C277.139 82.2647 277.276 81.9812 277.384 81.6865L292.183 41.325C292.889 39.3988 294.722 38.1183 296.774 38.1183H305.479C308.996 38.1183 311.363 41.7199 309.967 44.9484L276.418 122.579C275.644 124.37 273.88 125.529 271.929 125.529H264.381ZM274.447 97.707C271.967 98.5662 269.251 97.3146 268.294 94.8711L248.663 44.7931C247.406 41.5856 249.771 38.1183 253.216 38.1183H262.392C264.465 38.1183 266.313 39.4255 267.003 41.3803L283.897 89.2274C284.8 91.7847 283.449 94.5883 280.886 95.4762L274.447 97.707Z" stroke="#EEF2FF" stroke-width="20" mask="url(#path-1-outside-1_139_657)"/>
<path d="M264.381 125.529C260.829 125.529 258.462 121.862 259.925 118.625L274.043 87.3864L276.977 82.5333C277.139 82.2647 277.276 81.9812 277.384 81.6865L292.183 41.325C292.889 39.3988 294.722 38.1183 296.774 38.1183H305.479C308.996 38.1183 311.363 41.7199 309.967 44.9484L276.418 122.579C275.644 124.37 273.88 125.529 271.929 125.529H264.381ZM274.447 97.707C271.967 98.5662 269.251 97.3146 268.294 94.8711L248.663 44.7931C247.406 41.5856 249.771 38.1183 253.216 38.1183H262.392C264.465 38.1183 266.313 39.4255 267.003 41.3803L283.897 89.2274C284.8 91.7847 283.449 94.5883 280.886 95.4762L274.447 97.707Z" stroke="#A5B4FC" stroke-width="20" mask="url(#path-1-outside-1_139_657)"/>
<path d="M350.735 101.69C341.606 101.69 334.353 99.8563 328.973 96.1887C325.126 93.5656 322.53 90.2339 321.184 86.1935C320.284 83.4927 322.6 81.0292 325.447 81.0292H332.33C334.756 81.0292 336.661 82.9508 338.059 84.9336C338.733 85.8905 339.617 86.7082 340.71 87.3864C343.155 88.7719 346.496 89.4647 350.735 89.4647C354.565 89.4647 357.336 88.935 359.048 87.8754C360.841 86.7344 361.737 85.1451 361.737 83.1075C361.737 81.559 361.208 80.3772 360.148 79.5622C359.17 78.6657 357.336 77.9321 354.647 77.3616L344.622 75.2833C337.205 73.7348 331.745 71.412 328.24 68.3149C324.735 65.1363 322.983 61.0612 322.983 56.0895C322.983 50.0584 325.306 45.372 329.952 42.0304C334.597 38.6073 341.077 36.8957 349.39 36.8957C357.622 36.8957 364.182 38.5665 369.073 41.9081C372.416 44.1369 374.73 46.9752 376.017 50.423C377.017 53.1035 374.688 55.6005 371.827 55.6005H364.955C362.541 55.6005 360.641 53.5917 358.885 51.9367C358.443 51.5204 357.927 51.1524 357.336 50.8326C355.38 49.6916 352.609 49.1211 349.023 49.1211C345.763 49.1211 343.318 49.6101 341.688 50.5881C340.139 51.4847 339.365 52.7887 339.365 54.5002C339.365 55.9673 340.017 57.1491 341.321 58.0456C342.625 58.8606 344.785 59.5941 347.801 60.2461L359.048 62.569C365.323 63.873 370.051 66.3181 373.229 69.9042C376.489 73.4088 378.119 77.5654 378.119 82.374C378.119 88.4867 375.715 93.2546 370.906 96.6777C366.179 100.019 359.455 101.69 350.735 101.69Z" stroke="#EEF2FF" stroke-width="20" mask="url(#path-1-outside-1_139_657)"/>
<path d="M350.735 101.69C341.606 101.69 334.353 99.8563 328.973 96.1887C325.126 93.5656 322.53 90.2339 321.184 86.1935C320.284 83.4927 322.6 81.0292 325.447 81.0292H332.33C334.756 81.0292 336.661 82.9508 338.059 84.9336C338.733 85.8905 339.617 86.7082 340.71 87.3864C343.155 88.7719 346.496 89.4647 350.735 89.4647C354.565 89.4647 357.336 88.935 359.048 87.8754C360.841 86.7344 361.737 85.1451 361.737 83.1075C361.737 81.559 361.208 80.3772 360.148 79.5622C359.17 78.6657 357.336 77.9321 354.647 77.3616L344.622 75.2833C337.205 73.7348 331.745 71.412 328.24 68.3149C324.735 65.1363 322.983 61.0612 322.983 56.0895C322.983 50.0584 325.306 45.372 329.952 42.0304C334.597 38.6073 341.077 36.8957 349.39 36.8957C357.622 36.8957 364.182 38.5665 369.073 41.9081C372.416 44.1369 374.73 46.9752 376.017 50.423C377.017 53.1035 374.688 55.6005 371.827 55.6005H364.955C362.541 55.6005 360.641 53.5917 358.885 51.9367C358.443 51.5204 357.927 51.1524 357.336 50.8326C355.38 49.6916 352.609 49.1211 349.023 49.1211C345.763 49.1211 343.318 49.6101 341.688 50.5881C340.139 51.4847 339.365 52.7887 339.365 54.5002C339.365 55.9673 340.017 57.1491 341.321 58.0456C342.625 58.8606 344.785 59.5941 347.801 60.2461L359.048 62.569C365.323 63.873 370.051 66.3181 373.229 69.9042C376.489 73.4088 378.119 77.5654 378.119 82.374C378.119 88.4867 375.715 93.2546 370.906 96.6777C366.179 100.019 359.455 101.69 350.735 101.69Z" stroke="#A5B4FC" stroke-width="20" mask="url(#path-1-outside-1_139_657)"/>
<path d="M399.38 100.468C396.679 100.468 394.49 98.2781 394.49 95.5774V17.3352C394.49 14.6345 396.679 12.4451 399.38 12.4451H407.938C410.638 12.4451 412.828 14.6345 412.828 17.3352V95.5774C412.828 98.2781 410.638 100.468 407.938 100.468H399.38ZM436.817 100.468C435.332 100.468 433.927 99.7922 432.999 98.6322L411.061 71.21C409.601 69.3856 409.636 66.7837 411.144 64.9991L432.39 39.8524C433.319 38.7527 434.686 38.1183 436.126 38.1183H443.97C448.213 38.1183 450.443 43.1504 447.593 46.2932L427.638 68.3007C426.937 69.0747 425.657 68.4689 425.811 67.4355C425.945 66.5384 427.072 66.2157 427.66 66.9064L449.367 92.4077C452.07 95.5831 449.813 100.468 445.643 100.468H436.817Z" stroke="#EEF2FF" stroke-width="20" mask="url(#path-1-outside-1_139_657)"/>
<path d="M399.38 100.468C396.679 100.468 394.49 98.2781 394.49 95.5774V17.3352C394.49 14.6345 396.679 12.4451 399.38 12.4451H407.938C410.638 12.4451 412.828 14.6345 412.828 17.3352V95.5774C412.828 98.2781 410.638 100.468 407.938 100.468H399.38ZM436.817 100.468C435.332 100.468 433.927 99.7922 432.999 98.6322L411.061 71.21C409.601 69.3856 409.636 66.7837 411.144 64.9991L432.39 39.8524C433.319 38.7527 434.686 38.1183 436.126 38.1183H443.97C448.213 38.1183 450.443 43.1504 447.593 46.2932L427.638 68.3007C426.937 69.0747 425.657 68.4689 425.811 67.4355C425.945 66.5384 427.072 66.2157 427.66 66.9064L449.367 92.4077C452.07 95.5831 449.813 100.468 445.643 100.468H436.817Z" stroke="#A5B4FC" stroke-width="20" mask="url(#path-1-outside-1_139_657)"/>
<path d="M496.232 101.69C489.305 101.69 483.274 100.345 478.139 97.6557C473.004 94.8846 469.011 91.054 466.158 86.1639C463.387 81.2737 462.001 75.6501 462.001 69.2929C462.001 62.8542 463.387 57.2306 466.158 52.4219C469.011 47.5318 472.964 43.7419 478.017 41.0524C483.07 38.2813 488.938 36.8957 495.621 36.8957C502.06 36.8957 507.643 38.1998 512.37 40.8079C517.097 43.4159 520.765 47.0428 523.373 51.6884C525.981 56.334 527.285 61.7947 527.285 68.0704C527.285 69.3744 527.244 70.5969 527.162 71.738C527.026 73.5096 525.493 74.7943 523.716 74.7943H477.65C474.949 74.7943 472.76 72.6049 472.76 69.9042V67.5814C472.76 64.8806 474.949 62.6912 477.65 62.6912H509.581C510.323 62.6912 510.622 63.6477 510.012 64.0699C509.51 64.4172 508.82 64.0575 508.789 63.4479C508.574 59.1262 507.363 55.8992 505.157 53.7667C502.793 51.3216 499.533 50.0991 495.377 50.0991C490.568 50.0991 486.819 51.7292 484.129 54.9893C481.521 58.2493 480.217 63.1395 480.217 69.6597C480.217 76.0168 481.521 80.744 484.129 83.8411C486.819 86.9381 490.812 88.4867 496.11 88.4867C499.044 88.4867 501.571 87.9977 503.69 87.0196C504.878 86.4711 505.9 85.7302 506.756 84.797C508.025 83.4121 509.652 82.2518 511.531 82.2518H518.882C522.228 82.2518 524.583 85.5672 522.835 88.4208C520.867 91.6344 518.316 94.346 515.182 96.5554C510.292 99.9785 503.975 101.69 496.232 101.69Z" stroke="#EEF2FF" stroke-width="20" mask="url(#path-1-outside-1_139_657)"/>
<path d="M496.232 101.69C489.305 101.69 483.274 100.345 478.139 97.6557C473.004 94.8846 469.011 91.054 466.158 86.1639C463.387 81.2737 462.001 75.6501 462.001 69.2929C462.001 62.8542 463.387 57.2306 466.158 52.4219C469.011 47.5318 472.964 43.7419 478.017 41.0524C483.07 38.2813 488.938 36.8957 495.621 36.8957C502.06 36.8957 507.643 38.1998 512.37 40.8079C517.097 43.4159 520.765 47.0428 523.373 51.6884C525.981 56.334 527.285 61.7947 527.285 68.0704C527.285 69.3744 527.244 70.5969 527.162 71.738C527.026 73.5096 525.493 74.7943 523.716 74.7943H477.65C474.949 74.7943 472.76 72.6049 472.76 69.9042V67.5814C472.76 64.8806 474.949 62.6912 477.65 62.6912H509.581C510.323 62.6912 510.622 63.6477 510.012 64.0699C509.51 64.4172 508.82 64.0575 508.789 63.4479C508.574 59.1262 507.363 55.8992 505.157 53.7667C502.793 51.3216 499.533 50.0991 495.377 50.0991C490.568 50.0991 486.819 51.7292 484.129 54.9893C481.521 58.2493 480.217 63.1395 480.217 69.6597C480.217 76.0168 481.521 80.744 484.129 83.8411C486.819 86.9381 490.812 88.4867 496.11 88.4867C499.044 88.4867 501.571 87.9977 503.69 87.0196C504.878 86.4711 505.9 85.7302 506.756 84.797C508.025 83.4121 509.652 82.2518 511.531 82.2518H518.882C522.228 82.2518 524.583 85.5672 522.835 88.4208C520.867 91.6344 518.316 94.346 515.182 96.5554C510.292 99.9785 503.975 101.69 496.232 101.69Z" stroke="#A5B4FC" stroke-width="20" mask="url(#path-1-outside-1_139_657)"/>
<path d="M572.341 101.812C564.354 101.812 558.404 99.897 554.492 96.0664C550.661 92.1543 548.746 86.2454 548.746 78.3397V27.5756C548.746 25.5345 550.014 23.7081 551.926 22.9943L560.484 19.7994C563.679 18.6063 567.084 20.9694 567.084 24.3807V78.9509C567.084 81.722 567.858 83.8003 569.407 85.1858C570.955 86.5714 573.36 87.2642 576.62 87.2642C577.842 87.2642 578.983 87.1419 580.043 86.8974C581.637 86.5295 583.221 87.698 583.221 89.3341V97.0577C583.221 98.8567 582.227 100.535 580.48 100.963C579.934 101.096 579.34 101.216 578.698 101.323C576.823 101.649 574.704 101.812 572.341 101.812ZM542.022 52.0552C539.321 52.0552 537.132 49.8658 537.132 47.165V43.0084C537.132 40.3077 539.321 38.1183 542.022 38.1183H578.331C581.032 38.1183 583.221 40.3077 583.221 43.0084V47.165C583.221 49.8658 581.032 52.0552 578.331 52.0552H542.022Z" stroke="#EEF2FF" stroke-width="20" mask="url(#path-1-outside-1_139_657)"/>
<path d="M572.341 101.812C564.354 101.812 558.404 99.897 554.492 96.0664C550.661 92.1543 548.746 86.2454 548.746 78.3397V27.5756C548.746 25.5345 550.014 23.7081 551.926 22.9943L560.484 19.7994C563.679 18.6063 567.084 20.9694 567.084 24.3807V78.9509C567.084 81.722 567.858 83.8003 569.407 85.1858C570.955 86.5714 573.36 87.2642 576.62 87.2642C577.842 87.2642 578.983 87.1419 580.043 86.8974C581.637 86.5295 583.221 87.698 583.221 89.3341V97.0577C583.221 98.8567 582.227 100.535 580.48 100.963C579.934 101.096 579.34 101.216 578.698 101.323C576.823 101.649 574.704 101.812 572.341 101.812ZM542.022 52.0552C539.321 52.0552 537.132 49.8658 537.132 47.165V43.0084C537.132 40.3077 539.321 38.1183 542.022 38.1183H578.331C581.032 38.1183 583.221 40.3077 583.221 43.0084V47.165C583.221 49.8658 581.032 52.0552 578.331 52.0552H542.022Z" stroke="#A5B4FC" stroke-width="20" mask="url(#path-1-outside-1_139_657)"/>
<path d="M627.519 101.69C620.999 101.69 615.253 100.305 610.281 97.5334C605.31 94.7624 601.398 90.9318 598.545 86.0416C595.774 81.1515 594.389 75.5686 594.389 69.2929C594.389 63.0172 595.774 57.4343 598.545 52.5442C601.398 47.654 605.31 43.8234 610.281 41.0524C615.253 38.2813 620.999 36.8957 627.519 36.8957C632.98 36.8957 637.87 37.9145 642.19 39.9521C646.591 41.9081 650.177 44.6385 652.948 48.1431C654.613 50.1889 655.931 52.4431 656.902 54.9056C658.014 57.7271 655.677 60.4907 652.644 60.4907H644.37C642.206 60.4907 640.396 59.0019 639.256 57.162C638.372 55.7329 637.23 54.5604 635.832 53.6445C633.55 52.0959 630.861 51.3217 627.764 51.3217C624.83 51.3217 622.262 52.0552 620.062 53.5222C617.943 54.9893 616.313 57.0676 615.172 59.7571C614.031 62.4467 613.46 65.6253 613.46 69.2929C613.46 72.9605 614.031 76.1391 615.172 78.8287C616.313 81.5182 617.943 83.5965 620.062 85.0636C622.262 86.5306 624.83 87.2642 627.764 87.2642C630.861 87.2642 633.55 86.4899 635.832 84.9413C637.23 84.0254 638.372 82.8529 639.256 81.4238C640.396 79.5839 642.206 78.0951 644.37 78.0951H652.644C655.677 78.0951 658.014 80.8587 656.902 83.6802C655.931 86.1427 654.613 88.3969 652.948 90.4427C650.177 93.9473 646.591 96.7184 642.19 98.756C637.87 100.712 632.98 101.69 627.519 101.69Z" stroke="#EEF2FF" stroke-width="20" mask="url(#path-1-outside-1_139_657)"/>
<path d="M627.519 101.69C620.999 101.69 615.253 100.305 610.281 97.5334C605.31 94.7624 601.398 90.9318 598.545 86.0416C595.774 81.1515 594.389 75.5686 594.389 69.2929C594.389 63.0172 595.774 57.4343 598.545 52.5442C601.398 47.654 605.31 43.8234 610.281 41.0524C615.253 38.2813 620.999 36.8957 627.519 36.8957C632.98 36.8957 637.87 37.9145 642.19 39.9521C646.591 41.9081 650.177 44.6385 652.948 48.1431C654.613 50.1889 655.931 52.4431 656.902 54.9056C658.014 57.7271 655.677 60.4907 652.644 60.4907H644.37C642.206 60.4907 640.396 59.0019 639.256 57.162C638.372 55.7329 637.23 54.5604 635.832 53.6445C633.55 52.0959 630.861 51.3217 627.764 51.3217C624.83 51.3217 622.262 52.0552 620.062 53.5222C617.943 54.9893 616.313 57.0676 615.172 59.7571C614.031 62.4467 613.46 65.6253 613.46 69.2929C613.46 72.9605 614.031 76.1391 615.172 78.8287C616.313 81.5182 617.943 83.5965 620.062 85.0636C622.262 86.5306 624.83 87.2642 627.764 87.2642C630.861 87.2642 633.55 86.4899 635.832 84.9413C637.23 84.0254 638.372 82.8529 639.256 81.4238C640.396 79.5839 642.206 78.0951 644.37 78.0951H652.644C655.677 78.0951 658.014 80.8587 656.902 83.6802C655.931 86.1427 654.613 88.3969 652.948 90.4427C650.177 93.9473 646.591 96.7184 642.19 98.756C637.87 100.712 632.98 101.69 627.519 101.69Z" stroke="#A5B4FC" stroke-width="20" mask="url(#path-1-outside-1_139_657)"/>
<path d="M680.152 100.468C677.451 100.468 675.262 98.2781 675.262 95.5774V17.3352C675.262 14.6345 677.451 12.4451 680.152 12.4451H688.71C691.411 12.4451 693.6 14.6345 693.6 17.3352V95.5774C693.6 98.2781 691.411 100.468 688.71 100.468H680.152ZM723.552 100.468C720.851 100.468 718.662 98.2781 718.662 95.5774V61.8354C718.662 58.4123 717.765 55.845 715.972 54.1335C714.261 52.4219 711.734 51.5662 708.393 51.5662C705.54 51.5662 702.973 52.2182 700.691 53.5222C698.49 54.8262 696.738 56.6193 695.434 58.9014C694.211 61.1834 693.6 63.873 693.6 66.9701L692.149 53.2401C692.058 52.3838 692.187 51.5145 692.573 50.7447C694.581 46.735 697.369 43.5042 700.935 41.0524C704.929 38.2813 709.819 36.8957 715.606 36.8957C722.533 36.8957 727.831 38.8518 731.499 42.7639C735.166 46.5945 737 51.7699 737 58.2901V95.5774C737 98.2781 734.811 100.468 732.11 100.468H723.552Z" stroke="#EEF2FF" stroke-width="20" mask="url(#path-1-outside-1_139_657)"/>
<path d="M680.152 100.468C677.451 100.468 675.262 98.2781 675.262 95.5774V17.3352C675.262 14.6345 677.451 12.4451 680.152 12.4451H688.71C691.411 12.4451 693.6 14.6345 693.6 17.3352V95.5774C693.6 98.2781 691.411 100.468 688.71 100.468H680.152ZM723.552 100.468C720.851 100.468 718.662 98.2781 718.662 95.5774V61.8354C718.662 58.4123 717.765 55.845 715.972 54.1335C714.261 52.4219 711.734 51.5662 708.393 51.5662C705.54 51.5662 702.973 52.2182 700.691 53.5222C698.49 54.8262 696.738 56.6193 695.434 58.9014C694.211 61.1834 693.6 63.873 693.6 66.9701L692.149 53.2401C692.058 52.3838 692.187 51.5145 692.573 50.7447C694.581 46.735 697.369 43.5042 700.935 41.0524C704.929 38.2813 709.819 36.8957 715.606 36.8957C722.533 36.8957 727.831 38.8518 731.499 42.7639C735.166 46.5945 737 51.7699 737 58.2901V95.5774C737 98.2781 734.811 100.468 732.11 100.468H723.552Z" stroke="#A5B4FC" stroke-width="20" mask="url(#path-1-outside-1_139_657)"/>
</svg>
