<svg width="32" height="32" viewBox="0 0 32 32" fill="none" xmlns="http://www.w3.org/2000/svg">
<path fill-rule="evenodd" clip-rule="evenodd" d="M28.68 3.44C27.9317 2.69778 26.9207 2.28091 25.8667 2.28C24.9537 2.28297 24.0691 2.5982 23.36 3.17333L10.8667 13.3333L10.6667 13.5333C8.92538 15.2597 8.5391 17.9311 9.72001 20.08C9.23552 19.9322 8.73308 19.8514 8.22667 19.84C5.28116 19.84 2.89334 22.2278 2.89334 25.1733V28.5067C2.89334 29.6112 3.78877 30.5067 4.89334 30.5067H8.22667C10.0782 30.4965 11.7919 29.5268 12.7541 27.945C13.7162 26.3631 13.7891 24.3954 12.9467 22.7467C13.4796 22.9266 14.0376 23.0211 14.6 23.0267C16.0767 23.0366 17.495 22.4501 18.5333 21.4L18.6667 21.2533L28.8933 8.76C30.1842 7.19001 30.0924 4.90158 28.68 3.44ZM8.28001 28.5067H4.94667V25.1733C4.94667 23.3324 6.43906 21.84 8.28001 21.84C10.121 21.84 11.6133 23.3324 11.6133 25.1733C11.6133 27.0143 10.121 28.5067 8.28001 28.5067ZM17.1733 20L27.4 7.49333C28.0269 6.70812 27.9637 5.57727 27.2532 4.8668C26.5427 4.15634 25.4119 4.09313 24.6267 4.72L12.1333 14.9467C10.7379 16.3384 10.7349 18.5979 12.1267 19.9933C13.5184 21.3888 15.7779 21.3918 17.1733 20Z" fill="white"/>
<path d="M17.6 13.1067L13.6 17.1067C13.2101 17.4971 13.2101 18.1296 13.6 18.52C13.9904 18.9099 14.6229 18.9099 15.0133 18.52L19.0133 14.52C19.2809 14.2707 19.391 13.8953 19.3005 13.5409C19.21 13.1866 18.9334 12.91 18.5791 12.8195C18.2247 12.729 17.8493 12.8391 17.6 13.1067Z" fill="white"/>
</svg>
